<?xml version="1.0" encoding="utf-8"?><svg xmlns="http://www.w3.org/2000/svg" xmlns:xlink="http://www.w3.org/1999/xlink"><symbol viewBox="0 0 512.001 512.001" id="close" xmlns="http://www.w3.org/2000/svg"><path d="M284.286 256.002L506.143 34.144c7.811-7.811 7.811-20.475 0-28.285-7.811-7.81-20.475-7.811-28.285 0L256 227.717 34.143 5.859c-7.811-7.811-20.475-7.811-28.285 0-7.81 7.811-7.811 20.475 0 28.285l221.857 221.857L5.858 477.859c-7.811 7.811-7.811 20.475 0 28.285a19.938 19.938 0 0014.143 5.857 19.94 19.94 0 0014.143-5.857L256 284.287l221.857 221.857c3.905 3.905 9.024 5.857 14.143 5.857s10.237-1.952 14.143-5.857c7.811-7.811 7.811-20.475 0-28.285L284.286 256.002z"/></symbol><symbol viewBox="0 0 98.829 98.829" id="quote" xmlns="http://www.w3.org/2000/svg"><path d="M96.76 41.603C91.511 22.831 78.562 9.204 65.975 9.204c-1.011 0-2.021.088-3.005.262a1.998 1.998 0 00-1.581 2.507l2.591 9.268a2.02 2.02 0 002.01 1.459l.206-.004c4.668 0 13.199 6.996 17.548 22.545.172.617.335 1.248.492 1.906-4.882-2.416-10.706-2.975-15.98-1.506-11.898 3.329-18.868 15.715-15.542 27.611 2.696 9.639 11.563 16.373 21.563 16.373 2.037 0 4.071-.281 6.046-.834 7.846-2.193 13.745-8.707 16.611-18.338 2.587-8.689 2.522-19.204-.174-28.85zM14.088 9.206c-1.009 0-2.02.086-3.003.26a1.998 1.998 0 00-1.581 2.507l2.592 9.268c.25.895 1.097 1.5 2.01 1.459l.204-.004c4.668 0 13.2 6.996 17.549 22.545.173.621.336 1.252.492 1.906-4.884-2.416-10.706-2.975-15.98-1.506C4.475 48.97-2.497 61.356.831 73.252c2.696 9.639 11.563 16.373 21.563 16.373 2.037 0 4.071-.281 6.047-.834 7.845-2.193 13.744-8.707 16.611-18.338 2.586-8.689 2.522-19.205-.175-28.852-5.252-18.77-18.199-32.395-30.789-32.395z"/></symbol><symbol viewBox="0 0 512 512" id="search" xmlns="http://www.w3.org/2000/svg"><path d="M508.875 493.792L353.089 338.005c32.358-35.927 52.245-83.296 52.245-135.339C405.333 90.917 314.417 0 202.667 0S0 90.917 0 202.667s90.917 202.667 202.667 202.667c52.043 0 99.411-19.887 135.339-52.245l155.786 155.786a10.634 10.634 0 007.542 3.125c2.729 0 5.458-1.042 7.542-3.125 4.166-4.167 4.166-10.917-.001-15.083zM202.667 384c-99.979 0-181.333-81.344-181.333-181.333S102.688 21.333 202.667 21.333 384 102.677 384 202.667 302.646 384 202.667 384z"/></symbol><symbol viewBox="0 0 16 13" id="telegram" xmlns="http://www.w3.org/2000/svg"><path d="M7.016 8.321l5.649 4.265L15.517.414.943 6.146l4.435 1.469 8.093-5.429-6.455 6.135z"/><path d="M5.377 7.615l1.214 4.37.424-3.664 6.455-6.134-8.093 5.428z"/><path d="M8.851 9.708l-2.26 2.278.424-3.665 1.836 1.387z"/></symbol><symbol viewBox="0 0 17 17" id="viber" xmlns="http://www.w3.org/2000/svg"><path d="M10.17.28H6.831A6.078 6.078 0 00.76 6.353v2.32a6.1 6.1 0 001.768 4.273v3.066a.845.845 0 001.266.732l3.468-2h2.908a6.078 6.078 0 006.072-6.07V6.352A6.078 6.078 0 0010.17.281zm4.779 8.488a4.645 4.645 0 01-4.631 4.63H7.597L3.33 16.012v-4.06a4.613 4.613 0 01-1.277-3.183V6.257a4.645 4.645 0 014.63-4.631h3.635a4.645 4.645 0 014.63 4.63v2.512z"/><path d="M10.17.28H8.5v1.346h1.817a4.645 4.645 0 014.631 4.63v2.512a4.645 4.645 0 01-4.63 4.63H8.5v1.346h1.67a6.078 6.078 0 006.071-6.071V6.352A6.078 6.078 0 0010.17.281z"/><path d="M7.616 4.023a.222.222 0 01.058-.356c1.175-.584 2.73-.259 3.782.793 1.051 1.051 1.377 2.606.793 3.78a.222.222 0 01-.398-.197c.501-1.006.21-2.35-.709-3.27-.918-.918-2.264-1.21-3.27-.708a.222.222 0 01-.256-.042z"/><path d="M12.25 8.241a.222.222 0 01-.398-.198c.501-1.007.21-2.35-.709-3.27-.738-.737-1.75-1.07-2.643-.913v-.449c1.012-.15 2.137.23 2.957 1.049 1.051 1.052 1.377 2.606.792 3.781z"/><path d="M8.12 5a.222.222 0 01.063-.358c.807-.378 1.827-.155 2.536.555.71.71.933 1.728.556 2.535a.222.222 0 01-.402-.188c.298-.638.11-1.456-.467-2.034-.578-.578-1.396-.765-2.035-.466A.222.222 0 018.12 5z"/><path d="M11.275 7.732a.222.222 0 01-.402-.188c.299-.639.112-1.456-.466-2.033-.54-.54-1.29-.74-1.907-.52v-.464c.745-.198 1.601.05 2.22.67.71.709.932 1.728.555 2.535z"/><path d="M8.62 5.975a.222.222 0 01.078-.364c.426-.162.931-.036 1.288.32.356.357.482.862.321 1.288a.222.222 0 11-.415-.158c.098-.258.01-.586-.22-.816-.23-.23-.558-.318-.817-.22a.222.222 0 01-.235-.05z"/><path d="M8.62 5.975a.222.222 0 01.078-.364c.426-.162.931-.036 1.288.32.356.357.482.862.321 1.288a.222.222 0 11-.415-.158c.098-.258.01-.586-.22-.816-.23-.23-.558-.318-.817-.22a.222.222 0 01-.235-.05zm-1.603-.389l-1.54-1.54c-.195-.196-.472-.242-.614-.1l-.149.15c-.725.725-.86 1.783-.27 2.501A30.227 30.227 0 006.77 9.144a30.23 30.23 0 002.548 2.328c.718.59 1.776.455 2.501-.27l.15-.149c.141-.142.095-.419-.1-.614l-1.54-1.54c-.366-.366-.607-.315-.749-.173 0 0-.194.197-.23.238-.138.138-.489.169-.806-.03a5.267 5.267 0 01-.855-.708 5.267 5.267 0 01-.709-.855c-.198-.317-.167-.668-.029-.806.04-.036.238-.23.238-.23.142-.142.193-.383-.173-.75z"/><path d="M11.97 11.053l-.15.149c-.725.725-1.783.86-2.501.27a34.181 34.181 0 01-.819-.693V8.905l.046.03c.316.198.667.167.806.028v.001c.035-.04.23-.238.23-.238.142-.142.383-.193.748.173l1.54 1.54c.196.195.242.472.1.614z"/></symbol><symbol viewBox="0 0 16 15" id="whatsup" xmlns="http://www.w3.org/2000/svg"><path d="M7.612.295C3.802.476.795 3.649.807 7.463a7.124 7.124 0 00.778 3.228l-.76 3.687c-.04.2.14.374.338.327l3.613-.856a7.12 7.12 0 003.074.746c3.894.06 7.141-3.032 7.263-6.925A7.155 7.155 0 007.612.295zm4.311 11.108a5.566 5.566 0 01-3.961 1.64 5.545 5.545 0 01-2.494-.584l-.503-.25-2.215.524.466-2.263-.248-.486a5.539 5.539 0 01-.609-2.543c0-1.496.583-2.903 1.641-3.961a5.612 5.612 0 013.962-1.64 5.56 5.56 0 013.96 1.64 5.566 5.566 0 011.642 3.961 5.612 5.612 0 01-1.641 3.962z"/><path d="M11.435 8.993l-1.386-.398a.517.517 0 00-.511.135l-.34.345a.505.505 0 01-.548.116c-.656-.265-2.035-1.492-2.387-2.105a.505.505 0 01.04-.56l.296-.382a.517.517 0 00.063-.525L6.08 4.3a.517.517 0 00-.807-.185c-.386.328-.845.825-.901 1.375-.098.971.318 2.195 1.893 3.665 1.819 1.698 3.276 1.923 4.224 1.693.539-.13.969-.653 1.24-1.08a.517.517 0 00-.293-.775z"/></symbol></svg>